<svg width="48" height="49" viewBox="0 0 48 49" fill="none" xmlns="http://www.w3.org/2000/svg">
<path d="M20 44.25C28.8366 44.25 36 37.0866 36 28.25C36 19.4134 28.8366 12.25 20 12.25C11.1634 12.25 4 19.4134 4 28.25C4 37.0866 11.1634 44.25 20 44.25Z" fill="#3DDAB4"/>
<path d="M31.584 31.1753C39.0117 31.1753 45.033 25.154 45.033 17.7263C45.033 10.2987 39.0117 4.27734 31.584 4.27734C24.1563 4.27734 18.135 10.2987 18.135 17.7263C18.135 25.154 24.1563 31.1753 31.584 31.1753Z" fill="#F5BC00"/>
<path d="M4.07031 44.2518H19.9093L10.9223 35.8008L4.07031 44.2518Z" fill="#3DDAB4"/>
<path d="M20 12.25C19.761 12.25 19.529 12.275 19.292 12.286C18.553 13.951 18.135 15.79 18.135 17.729C18.135 25.157 24.156 31.178 31.584 31.178C33.068 31.178 34.491 30.928 35.826 30.485C35.929 29.752 36 29.01 36 28.25C36 19.413 28.837 12.25 20 12.25Z" fill="#00B569"/>
<path d="M44.9749 4.27734H31.6609L39.2149 11.3813L44.9749 4.27734Z" fill="#F5BC00"/>
</svg>
