<svg width="48" height="49" viewBox="0 0 48 49" fill="none" xmlns="http://www.w3.org/2000/svg">
<path d="M37 6.75H11V30.75L24 36.75L37 42.75V6.75Z" fill="#F55376"/>
<path d="M11 6.75H37V30.75L24 36.75L11 42.75V6.75Z" fill="#F55376"/>
<path d="M11 6.75V30.75L24 36.75L31.5 33.288L37 25.75V6.75H11Z" fill="#EB0000"/>
<path d="M37 30.518L48 21.75H26L37 30.518Z" fill="#FADB00"/>
<path d="M37 30.482L43.957 34.75H44L37 14.75L30 34.75H30.044L37 30.482Z" fill="#FADB00"/>
<path d="M39.4496 21.75H34.5496L32.6846 27.079L36.9736 30.498L36.9996 30.482L37.0256 30.498L41.3146 27.079L39.4496 21.75Z" fill="#F5BC00"/>
</svg>
