<svg width="40" height="40" viewBox="0 0 40 40" fill="none" xmlns="http://www.w3.org/2000/svg">
<path d="M3.00778 10.0575C-0.438778 15.0109 -0.00971582 21.4563 2.6231 26.72C2.6856 26.8463 2.75122 26.9703 2.81591 27.0944L2.93903 27.3316L3.01591 27.4681L3.1531 27.7138C3.23497 27.8578 3.31872 28.0013 3.40435 28.1447L3.54778 28.3809C3.64278 28.5344 3.73997 28.6859 3.83935 28.8372L3.96372 29.0291C4.10091 29.2338 4.24122 29.4381 4.38622 29.6388L4.39841 29.6544L4.46966 29.7506C4.59497 29.9234 4.72403 30.0941 4.85466 30.2628L4.99966 30.4472C5.11622 30.5938 5.23466 30.7394 5.35528 30.8844L5.49122 31.0469C5.6531 31.2375 5.81841 31.4272 5.98685 31.6131L5.99716 31.6234L6.01622 31.6447C6.18091 31.8244 6.34935 32 6.51997 32.1756L6.68153 32.3384C6.81372 32.4716 6.9481 32.6025 7.08372 32.7328L7.24841 32.8891C7.42966 33.06 7.61278 33.2275 7.79966 33.3913L7.80841 33.3981L7.90435 33.48C8.06904 33.6225 8.23653 33.7641 8.40528 33.9028L8.61279 34.0681C8.7506 34.1788 8.88997 34.2875 9.03028 34.3944L9.25341 34.5641C9.40841 34.6781 9.56435 34.7903 9.72185 34.9L9.89247 35.0209L9.93935 35.0544C10.0887 35.1572 10.2415 35.2563 10.3943 35.3553L10.5912 35.4866C10.8256 35.6347 11.0631 35.7813 11.3034 35.9228L11.5003 36.0338C11.6768 36.1356 11.8547 36.2356 12.0347 36.3334C12.1322 36.3859 12.2322 36.4356 12.3303 36.4859C12.4575 36.5525 12.5837 36.62 12.7131 36.6847L12.8015 36.7275L12.9581 36.8031C13.1584 36.8988 13.3603 36.9928 13.5643 37.0834L13.6925 37.1409C13.9262 37.2431 14.1618 37.3413 14.3997 37.435L14.5718 37.5028C14.7918 37.5875 15.015 37.6713 15.239 37.75L15.3228 37.7791C15.5687 37.865 15.8168 37.9447 16.0668 38.0225L16.2465 38.0763C16.5009 38.1528 16.7525 38.2444 17.0147 38.2928C33.6831 41.3325 38.525 28.2763 38.525 28.2763C34.4584 33.5741 27.2403 34.9716 20.4012 33.4156C20.1422 33.3572 19.8909 33.2763 19.6381 33.2016L19.4478 33.1438C19.2009 33.0681 18.9562 32.9884 18.7128 32.9047L18.6118 32.8681C18.3937 32.7916 18.1784 32.7106 17.9637 32.6278L17.7818 32.5563C17.5468 32.4634 17.3131 32.3666 17.0822 32.2653L16.9425 32.2034C16.744 32.1134 16.5478 32.0228 16.3522 31.9288L16.1815 31.8469C16.0281 31.7722 15.8762 31.6928 15.725 31.6147C15.6237 31.5613 15.5206 31.5109 15.4203 31.4553C15.2353 31.3563 15.054 31.2534 14.8731 31.1484L14.6884 31.0453C14.4481 30.9041 14.2109 30.7575 13.9759 30.6088L13.7837 30.4806C13.6134 30.3709 13.4437 30.2591 13.2765 30.1434L13.1134 30.0288C12.9522 29.9147 12.7925 29.7994 12.634 29.6822L12.4218 29.5216C12.2765 29.4106 12.1322 29.2988 11.9893 29.1834L11.7965 29.0288C11.6147 28.8791 11.4353 28.7291 11.2578 28.5747L11.1987 28.525C11.0068 28.3566 10.8187 28.1838 10.6325 28.0103L10.4728 27.8569C10.335 27.7256 10.1993 27.5934 10.0659 27.4578L9.90654 27.2988C9.73685 27.125 9.57029 26.9491 9.40716 26.7706L9.38247 26.7444C9.20997 26.5556 9.04122 26.3628 8.87591 26.1681L8.74341 26.0106C8.62028 25.8622 8.4981 25.7119 8.37872 25.56L8.24528 25.3938C8.10185 25.2075 7.96153 25.0222 7.82435 24.8331C4.02747 19.6538 2.6631 12.5106 5.69778 6.64438M13.7068 5.88375C11.214 9.47063 11.3497 14.2725 13.294 18.0659C13.62 18.7019 13.9865 19.3191 14.3965 19.9063C14.77 20.4416 15.184 21.0784 15.6797 21.5084C15.8593 21.7063 16.0472 21.8994 16.239 22.0891L16.3865 22.2344C16.5728 22.415 16.7618 22.5925 16.9578 22.765L16.9809 22.785L16.9865 22.7906C17.2031 22.9806 17.4265 23.1628 17.6537 23.3428L17.8053 23.4609C18.0331 23.6356 18.2653 23.8069 18.5031 23.9706L18.5234 23.9859C18.6284 24.0584 18.7353 24.1259 18.8418 24.1959L18.9928 24.2956C19.1628 24.4047 19.335 24.5109 19.51 24.6128L19.5834 24.6553C19.7343 24.7422 19.8872 24.8278 20.0406 24.9109L20.2034 24.9956C20.3093 25.0509 20.4153 25.1075 20.5231 25.1613L20.5715 25.1831C20.7912 25.2913 21.0128 25.3956 21.239 25.4941L21.3865 25.5547C21.5675 25.6316 21.7503 25.7066 21.9334 25.7766L22.1678 25.8625C22.3343 25.9244 22.5015 25.9806 22.67 26.0372L22.8972 26.11C23.1369 26.1844 23.3737 26.2784 23.6234 26.32C36.4931 28.4522 39.4644 18.5431 39.4644 18.5431C36.7862 22.4003 31.5994 24.2409 26.0647 22.8041C25.8187 22.7394 25.5765 22.6694 25.3356 22.5934L25.1165 22.5225C24.9453 22.4672 24.7753 22.4084 24.6068 22.3469L24.3768 22.2613C24.1918 22.19 24.0094 22.1169 23.8281 22.04L23.6803 21.9775C23.4531 21.8788 23.2293 21.7744 23.009 21.6653C22.8956 21.61 22.784 21.5516 22.6722 21.4941L22.4778 21.3941C22.3347 21.3166 22.1922 21.2359 22.0519 21.1534L21.95 21.0956C21.7756 20.9941 21.604 20.8891 21.434 20.7806L21.2784 20.6769C21.1662 20.6044 21.0544 20.5303 20.9444 20.4559C20.7072 20.2922 20.4762 20.1209 20.2487 19.9472L20.0922 19.8238C17.6697 17.9113 15.749 15.2969 14.8362 12.3328C13.8793 9.25906 14.0856 5.80844 15.7434 3.00781M22.7053 2.76563C21.2359 4.92813 21.0915 7.61375 22.1112 10.0019C23.1865 12.5372 25.3897 14.5256 27.9612 15.4691C28.0672 15.5081 28.1734 15.5431 28.2806 15.5797L28.4215 15.6244C28.5731 15.6719 28.7234 15.7272 28.88 15.7569C35.9862 17.13 37.9137 12.1103 38.4265 11.3712C36.7384 13.8022 33.9009 14.3856 30.4194 13.5406C30.1444 13.4741 29.8422 13.3747 29.5772 13.2806C29.2372 13.1594 28.9022 13.0213 28.5769 12.8653C27.9587 12.5681 27.3694 12.2078 26.8231 11.7953C23.7078 9.43125 21.7725 4.92219 23.8053 1.25" fill="#43BAFF"/>
</svg>
