<svg width="20" height="20" viewBox="0 0 20 20" fill="none" xmlns="http://www.w3.org/2000/svg">
<path fill-rule="evenodd" clip-rule="evenodd" d="M15.8695 4.51086C16.512 4.69622 17.0186 5.23881 17.1916 5.92715C17.5129 7.18445 17.5006 9.8052 17.5006 9.8052C17.5006 9.8052 17.5006 12.4126 17.1917 13.67C17.0186 14.3582 16.5121 14.9009 15.8695 15.0862C14.6956 15.4172 10.0003 15.4172 10.0003 15.4172C10.0003 15.4172 5.31719 15.4172 4.13107 15.0731C3.48846 14.8877 2.98193 14.345 2.80889 13.6568C2.5 12.4126 2.5 9.79196 2.5 9.79196C2.5 9.79196 2.5 7.18445 2.80889 5.92715C2.98181 5.23893 3.50082 4.68298 4.13096 4.49774C5.30483 4.16675 10.0002 4.16675 10.0002 4.16675C10.0002 4.16675 14.6956 4.16675 15.8695 4.51086ZM12.5004 9.79194L8.33354 12.2027V7.38114L12.5004 9.79194Z" fill="#5D7287"/>
</svg>
