<svg width="40" height="40" viewBox="0 0 40 40" fill="none" xmlns="http://www.w3.org/2000/svg">
<path d="M7.37757 34.0013L4.57007 2.5H35.4301L32.6188 33.9963L19.9813 37.5L7.37757 34.0013Z" fill="#1572B6"/>
<path d="M20 34.8244L30.2125 31.9931L32.615 5.07812H20V34.8244Z" fill="#33A9DC"/>
<path d="M20 16.4919H25.1125L25.465 12.5356H20V8.67188H29.6875L29.595 9.70812L28.6462 20.3556H20V16.4919Z" fill="white"/>
<path d="M20.0238 26.52L20.0063 26.525L15.7038 25.3625L15.4288 22.2812H11.55L12.0913 28.3475L20.005 30.545L20.0238 30.54V26.52Z" fill="#EBEBEB"/>
<path d="M24.7838 20.1875L24.3188 25.3613L20.01 26.5238V30.5438L27.93 28.3488L27.9888 27.6963L28.66 20.1875H24.7838Z" fill="white"/>
<path d="M20.0137 8.67188V12.5356H10.6812L10.6037 11.6669L10.4275 9.70812L10.335 8.67188H20.0137ZM20 16.4919V20.3556H15.7512L15.6737 19.4869L15.4987 17.5281L15.4062 16.4919H20Z" fill="#EBEBEB"/>
</svg>
